<svg width="22" height="36" viewBox="0 0 22 36" fill="none" xmlns="http://www.w3.org/2000/svg">
<path d="M2.62169 34.6635C2.37796 35.0023 1.86003 35.1004 1.47412 34.8864C1.08821 34.6724 0.976495 34.2177 1.22023 33.8789L10.3297 21.4767C10.5735 21.1379 11.0914 21.0399 11.4773 21.2538C11.589 21.3163 11.6703 21.3965 11.7414 21.4857L20.8509 33.8789C21.0946 34.2177 20.9829 34.6724 20.597 34.8864C20.2111 35.1004 19.6931 35.0023 19.4494 34.6635L11.0406 23.2154L2.62169 34.6635ZM2.5303 24.3209C2.28657 24.6598 1.76863 24.7578 1.38272 24.5438C0.99681 24.3299 0.885099 23.8751 1.12883 23.5363L10.2383 11.1342C10.4821 10.7954 11 10.6973 11.3859 10.9113C11.4976 10.9737 11.5789 11.054 11.65 11.1431L20.7594 23.5363C21.0032 23.8751 20.8915 24.3299 20.5056 24.5438C20.1196 24.7578 19.6017 24.6598 19.358 24.3209L10.9492 12.8728L2.5303 24.3209ZM2.64199 14.5223C2.39826 14.8611 1.88036 14.9592 1.49445 14.7452C1.10854 14.5312 0.996826 14.0765 1.24056 13.7377L10.35 1.33552C10.5938 0.996711 11.1117 0.898635 11.4976 1.11262C11.6093 1.17503 11.6906 1.25528 11.7617 1.34444L20.8712 13.7377C21.1149 14.0765 21.0032 14.5312 20.6173 14.7452C20.2314 14.9592 19.7134 14.8611 19.4697 14.5223L11.0609 3.07415L2.64199 14.5223Z" fill="white" stroke="white" stroke-width="1.5"/>
</svg>
