<svg width="30" height="30" viewBox="0 0 30 30" fill="none" xmlns="http://www.w3.org/2000/svg">
<path fill-rule="evenodd" clip-rule="evenodd" d="M15 30C23.2842 30 30 23.2842 30 15C30 6.7158 23.2842 0 15 0C6.7158 0 0 6.7158 0 15C0 23.2842 6.7158 30 15 30ZM19.0389 11.076C19.0389 13.3824 17.169 15.252 14.8629 15.252C12.5565 15.252 10.6869 13.3824 10.6869 11.076C10.6869 8.7696 12.5565 6.9 14.8629 6.9C17.1693 6.9 19.0389 8.7696 19.0389 11.076ZM16.9173 11.076C16.9173 10.5311 16.7009 10.0086 16.3156 9.62332C15.9303 9.23805 15.4078 9.0216 14.8629 9.0216C14.318 9.0216 13.7955 9.23805 13.4102 9.62332C13.0249 10.0086 12.8085 10.5311 12.8085 11.076C12.8085 11.6209 13.0249 12.1434 13.4102 12.5287C13.7955 12.914 14.318 13.1304 14.8629 13.1304C15.4078 13.1304 15.9303 12.914 16.3156 12.5287C16.7009 12.1434 16.9173 11.6209 16.9173 11.076ZM17.9196 15.5778C18.7878 14.8938 19.4406 15.2877 19.6764 15.7614C20.0874 16.5873 19.623 16.9866 18.5751 17.6592C17.6871 18.2292 16.4703 18.4449 15.6756 18.5268L16.3407 19.1916L18.8016 21.6525C18.9812 21.8321 19.0821 22.0756 19.0821 22.3296C19.0821 22.5836 18.9812 22.8271 18.8016 23.0067L18.6888 23.1195C18.5092 23.2991 18.2657 23.4 18.0117 23.4C17.7577 23.4 17.5142 23.2991 17.3346 23.1195L14.8737 20.6586L12.4128 23.1195C12.2332 23.2991 11.9897 23.4 11.7357 23.4C11.4817 23.4 11.2382 23.2991 11.0586 23.1195L10.9458 23.0067C10.7662 22.8271 10.6654 22.5836 10.6654 22.3296C10.6654 22.0756 10.7662 21.8321 10.9458 21.6525L13.4067 19.1916L14.0697 18.5286C13.2753 18.4482 12.0453 18.2337 11.1501 17.6592C10.1019 16.9863 9.6378 16.5873 10.0488 15.7614C10.2846 15.2877 10.9377 14.8938 11.8053 15.5778C12.9783 16.5018 14.8623 16.5018 14.8623 16.5018C14.8623 16.5018 16.7469 16.5018 17.9196 15.5778Z" fill="#BEDB2B"/>
</svg>
