<svg width="30" height="30" viewBox="0 0 30 30" fill="none" xmlns="http://www.w3.org/2000/svg">
<path fill-rule="evenodd" clip-rule="evenodd" d="M15 30C23.2843 30 30 23.2843 30 15C30 6.71571 23.2843 0 15 0C6.71571 0 0 6.71571 0 15C0 23.2843 6.71571 30 15 30ZM6.73469 10.4082C6.87067 16.9346 10.1339 20.8568 15.8551 20.8568H16.1794V17.123C18.2817 17.3321 19.8714 18.8697 20.5094 20.8568H23.4798C22.6641 17.8865 20.5198 16.2444 19.181 15.6168C20.5198 14.8428 22.4025 12.9602 22.8522 10.4082H20.1537C19.568 12.4791 17.8319 14.3617 16.1794 14.5395V10.4082H13.4808V17.6459C11.8074 17.2275 9.69465 15.1984 9.60052 10.4082H6.73469Z" fill="#BEDB2B"/>
</svg>
