<svg width="150" height="23" viewBox="0 0 150 23" fill="none" xmlns="http://www.w3.org/2000/svg">
<path d="M146.408 6.62489C148.34 6.62489 149.905 5.14295 149.905 3.31489C149.905 1.48683 148.34 0.00488281 146.408 0.00488281C144.477 0.00488281 142.912 1.48683 142.912 3.31489C142.912 5.14295 144.477 6.62489 146.408 6.62489Z" fill="#BEDB2B"/>
<path fill-rule="evenodd" clip-rule="evenodd" d="M83.3292 2.09993C69.3169 -0.500068 69.7447 22.7699 79.3098 22.7399C79.7225 22.7388 80.1823 22.7573 80.665 22.7767C82.3198 22.8433 84.2433 22.9207 85.4577 22.2549C92.0229 18.6399 91.7693 3.66493 83.3292 2.09993ZM84.1072 18.2112C83.3406 19.7087 82.3008 20.5499 81.2165 20.5499C80.1323 20.5499 79.0925 19.7087 78.3259 18.2112C77.5592 16.7137 77.1285 14.6827 77.1285 12.5649C77.1285 10.4472 77.5592 8.41616 78.3259 6.91869C79.0925 5.42121 80.1323 4.57993 81.2165 4.57993C82.3008 4.57993 83.3406 5.42121 84.1072 6.91869C84.8739 8.41616 85.3046 10.4472 85.3046 12.5649C85.3046 14.6827 84.8739 16.7137 84.1072 18.2112ZM59.9472 22.5V15.115C59.9472 14.9183 60.0511 14.8116 60.2588 14.795C64.2412 14.495 68.3398 14.165 69.9507 10.02C71.3557 6.40497 68.7148 2.97498 64.78 2.29998C62.0722 1.83331 59.044 1.85831 55.6955 2.37498C55.5511 2.39498 55.4789 2.47497 55.4789 2.61497L55.4155 22.48C55.4155 22.66 55.5106 22.75 55.7007 22.75H59.6831C59.8592 22.75 59.9472 22.6666 59.9472 22.5ZM59.9314 11.805L59.9525 4.88498C59.9525 4.85041 59.9598 4.81618 59.9739 4.78431C59.988 4.75243 60.0087 4.72355 60.0348 4.69934C60.0609 4.67513 60.0918 4.65608 60.1257 4.64332C60.1596 4.63055 60.1959 4.62431 60.2324 4.62498L61.6004 4.62997C62.6746 4.63417 63.7032 5.00947 64.4599 5.67333C65.2167 6.33719 65.6395 7.23523 65.6356 8.16997V8.55997C65.6337 9.02296 65.5269 9.48102 65.3215 9.908C65.116 10.335 64.8159 10.7225 64.4382 11.0484C64.0606 11.3744 63.6128 11.6324 63.1204 11.8076C62.628 11.9829 62.1008 12.0721 61.5687 12.07L60.2007 12.065C60.1288 12.0637 60.0603 12.0357 60.0099 11.9871C59.9596 11.9385 59.9314 11.8731 59.9314 11.805ZM106.69 11.6251C107.028 6.05007 109.827 1.47007 116.472 2.00007C127.225 2.86007 126.032 22.8701 117.037 22.7551C116.581 22.7491 116.092 22.7646 115.59 22.7804C113.973 22.8315 112.212 22.8871 110.947 22.2501C107.329 20.4201 106.463 15.3401 106.69 11.6251ZM112.532 6.71507C111.09 9.30507 110.583 17.4901 113.377 19.6751C115.87 21.6251 118.199 19.5551 118.753 17.0751C119.451 13.9701 119.836 8.43507 117.687 5.84007C116.002 3.81007 113.636 4.72507 112.532 6.71507ZM132.306 22.4999V15.1099C132.306 14.9066 132.414 14.8016 132.628 14.7949C137.731 14.5799 143.625 12.9549 142.426 6.76994C141.343 1.20494 132.713 1.65994 128.049 2.37494C127.898 2.39827 127.822 2.48161 127.822 2.62494L127.801 22.4949C127.801 22.6649 127.891 22.7499 128.07 22.7499H132.042C132.218 22.7499 132.306 22.6666 132.306 22.4999ZM132.317 11.8349L132.296 4.93494C132.296 4.86949 132.323 4.80665 132.371 4.75991C132.42 4.71317 132.485 4.68625 132.555 4.68494L134.065 4.67994C134.578 4.67788 135.087 4.76562 135.562 4.93815C136.037 5.11067 136.469 5.36461 136.834 5.68544C137.198 6.00628 137.488 6.38773 137.686 6.80802C137.884 7.22831 137.987 7.6792 137.989 8.13494V8.59494C137.993 9.51514 137.586 10.3992 136.856 11.0528C136.126 11.7063 135.133 12.0758 134.097 12.0799L132.586 12.0849C132.551 12.0856 132.516 12.0796 132.484 12.0674C132.451 12.0551 132.421 12.0368 132.396 12.0135C132.371 11.9902 132.351 11.9624 132.337 11.9318C132.324 11.9011 132.317 11.8682 132.317 11.8349ZM4.07801 11.52C4.83467 11.1225 7.25049 6.56129 8.63362 3.94988C9.00764 3.24371 9.30614 2.68012 9.4759 2.38C9.57097 2.21 9.72062 2.125 9.92485 2.125H14.2189C14.5076 2.125 14.5727 2.23833 14.4143 2.465L8.05513 11.515C8.02598 11.5565 8.00783 11.604 8.00217 11.6536C7.99651 11.7032 8.00351 11.7535 8.02258 11.8003C8.04165 11.8472 8.07226 11.8892 8.11189 11.9231C8.15152 11.9569 8.19904 11.9816 8.25055 11.995C11.9602 12.9384 13.0644 17.0668 13.9745 20.4695L13.9745 20.4695C14.1594 21.1605 14.3362 21.8216 14.5252 22.42C14.5956 22.64 14.5076 22.75 14.2611 22.75H10.3104C10.1414 22.75 10.0322 22.6733 9.98294 22.52C9.7885 21.9121 9.62249 21.2306 9.45014 20.5231C8.70959 17.4831 7.85212 13.9631 4.12027 13.74C4.0822 13.738 4.04408 13.7433 4.00827 13.7557C3.97246 13.7681 3.9397 13.7873 3.912 13.8121C3.88431 13.8369 3.86226 13.8668 3.84721 13.9C3.83216 13.9332 3.82443 13.9689 3.82449 14.005L3.83506 22.45C3.83506 22.65 3.72942 22.75 3.51815 22.75H0.444211C0.296324 22.75 0.224141 22.6817 0.227662 22.545L0.280479 2.365C0.284 2.205 0.370268 2.125 0.539282 2.125H3.56569C3.74175 2.125 3.82977 2.20833 3.82977 2.375V11.38C3.83002 11.4075 3.83773 11.4345 3.85219 11.4583C3.86664 11.4821 3.88733 11.5021 3.91228 11.5161C3.93723 11.5302 3.96558 11.5379 3.99461 11.5386C4.02364 11.5393 4.05236 11.5329 4.07801 11.52ZM21.919 10.58V5.105C21.919 5.05992 21.9379 5.01668 21.9716 4.98479C22.0053 4.95291 22.0509 4.935 22.0986 4.935L29.0017 4.965C29.0494 4.965 29.095 4.94709 29.1287 4.91521C29.1624 4.88333 29.1813 4.84009 29.1813 4.795V2.295C29.1813 2.27267 29.1767 2.25057 29.1676 2.22994C29.1586 2.20932 29.1454 2.19058 29.1287 2.17479C29.112 2.159 29.0922 2.14648 29.0704 2.13794C29.0487 2.1294 29.0253 2.125 29.0017 2.125H17.5933C17.5697 2.125 17.5463 2.1294 17.5246 2.13794C17.5028 2.14648 17.483 2.159 17.4663 2.17479C17.4496 2.19058 17.4364 2.20932 17.4274 2.22994C17.4183 2.25057 17.4137 2.27267 17.4137 2.295L17.5193 22.58C17.5193 22.6251 17.5382 22.6683 17.5719 22.7002C17.6056 22.7321 17.6513 22.75 17.6989 22.75H29.5299C29.5749 22.7502 29.6183 22.7343 29.6516 22.7056C29.6848 22.6769 29.7055 22.6374 29.7095 22.595L29.8838 20.435C29.886 20.4114 29.883 20.3877 29.8749 20.3653C29.8669 20.3429 29.854 20.3224 29.8371 20.305C29.8202 20.2876 29.7997 20.2737 29.7768 20.2642C29.7539 20.2547 29.7292 20.2499 29.7042 20.25H22.0986C22.0509 20.25 22.0053 20.2321 21.9716 20.2002C21.9379 20.1683 21.919 20.1251 21.919 20.08V13.67C21.919 13.6249 21.9379 13.5817 21.9716 13.5498C22.0053 13.5179 22.0509 13.5 22.0986 13.5L28.6056 13.505C28.6532 13.505 28.6989 13.4871 28.7326 13.4552C28.7663 13.4233 28.7852 13.3801 28.7852 13.335V10.92C28.7852 10.8749 28.7663 10.8317 28.7326 10.7998C28.6989 10.7679 28.6532 10.75 28.6056 10.75H22.0986C22.0509 10.75 22.0053 10.7321 21.9716 10.7002C21.9379 10.6683 21.919 10.6251 21.919 10.58ZM50.3081 20.25H51.6813C51.9172 20.25 52.0352 20.3617 52.0352 20.585L52.0193 22.44C52.0193 22.6467 51.9102 22.75 51.6919 22.75H32.176C31.9683 22.75 31.8591 22.6533 31.8486 22.46L31.7271 20.6C31.713 20.3667 31.831 20.25 32.081 20.25H33.375C33.5898 20.25 33.7447 20.1583 33.8398 19.975C36.7847 14.33 36.6789 8.70934 36.5638 2.60105L36.5598 2.39C36.5591 2.35544 36.5658 2.3211 36.5796 2.28899C36.5933 2.25687 36.6139 2.22762 36.6399 2.20294C36.666 2.17827 36.6971 2.15867 36.7314 2.14529C36.7657 2.1319 36.8025 2.12501 36.8398 2.125H49.7799C49.9559 2.125 50.044 2.20833 50.044 2.375V20C50.044 20.1667 50.132 20.25 50.3081 20.25ZM38.551 20.125L45.3221 20.19C45.4771 20.1933 45.5545 20.12 45.5545 19.97V5.29C45.5545 5.08667 45.4471 4.985 45.2324 4.985L41.4507 5.005C40.9119 5.005 40.6672 5.26 40.7165 5.77C41.1848 10.7033 40.4331 15.445 38.4612 19.995C38.4225 20.0783 38.4524 20.1217 38.551 20.125ZM98.1232 22.6L98.1021 5.095C98.1021 5.05522 98.1188 5.01707 98.1485 4.98894C98.1782 4.96081 98.2185 4.945 98.2605 4.945L105.787 4.965C105.828 4.96502 105.868 4.94991 105.897 4.92285C105.927 4.89579 105.944 4.85891 105.945 4.82L106.067 2.28C106.068 2.25988 106.064 2.23984 106.056 2.22106C106.049 2.20228 106.037 2.18515 106.022 2.17068C106.008 2.15622 105.99 2.14473 105.97 2.13688C105.951 2.12903 105.93 2.12499 105.908 2.125H93.8978C93.8558 2.125 93.8155 2.14081 93.7858 2.16894C93.7561 2.19707 93.7394 2.23522 93.7394 2.275L93.7447 22.6C93.7447 22.6398 93.7614 22.6779 93.7911 22.7061C93.8208 22.7342 93.8611 22.75 93.9031 22.75H97.9647C97.9855 22.75 98.0061 22.7461 98.0254 22.7386C98.0446 22.731 98.0621 22.72 98.0768 22.7061C98.0915 22.6921 98.1032 22.6756 98.1111 22.6574C98.1191 22.6392 98.1232 22.6197 98.1232 22.6Z" fill="white"/>
</svg>
