<svg width="630" height="631" viewBox="0 0 630 631" fill="none" xmlns="http://www.w3.org/2000/svg">
<path d="M0 315.104C0 452.595 109.414 630.208 314.583 630.208C514.753 630.208 629.167 452.599 629.167 315.104C629.167 177.609 521.397 0 314.583 0C113.25 0 0 177.609 0 315.104Z" fill="#525558"/>
<path d="M363.702 138.42C365.474 139.164 367.303 139.709 369.19 140.055L368.526 142.361C368.457 142.599 368.542 142.749 368.78 142.811L369.318 142.95C369.58 143.019 369.622 143.154 369.445 143.354C366.31 146.99 363.046 150.498 359.652 153.875C358.682 154.84 357.237 155.47 356.29 156.81C356.155 156.999 355.974 157.123 355.747 157.185L353.43 157.833C353.237 157.886 353.104 158.006 353.031 158.191C352.442 159.67 352.026 160.802 350.899 162.044C350.091 162.938 349.37 163.901 348.738 164.933C348.634 165.102 348.488 165.214 348.3 165.268L345.099 166.193C344.887 166.255 344.727 166.381 344.619 166.574C343.591 168.417 344.174 170.185 345.029 172.091C345.122 172.288 345.07 172.438 344.874 172.542C343.228 173.414 342.557 174.951 341.477 175.985C339.778 177.62 337.063 180.335 338.605 182.461L340.535 187.569L341.17 190.174L341.338 192.318C340.604 198.789 338.045 205.265 340.327 211.383C342.592 214.191 344.654 217.136 346.515 220.217C348.525 226.299 350.535 232.379 352.546 238.457C352.846 239.369 352.973 240.652 352.823 241.588C351.72 248.694 350.05 255.951 349.426 263.091C349.16 265.984 349.16 268.871 349.426 271.752C349.934 277.189 350.293 282.632 350.703 288.08C350.826 289.732 350.612 291.565 350.062 293.58C348.274 297.589 347.277 301.787 347.069 306.174C346.68 308.751 346.322 311.352 345.994 313.979C345.763 315.845 344.753 317.001 343.759 318.492C343.647 318.661 343.633 318.838 343.718 319.023C343.895 319.397 344.201 319.634 344.637 319.734L347.398 322.46C347.683 322.745 347.845 323.132 347.849 323.536L347.912 330.514C348.813 331.789 349.937 332.722 351.281 333.311L354.17 335.622C356.777 339.227 359.19 342.94 361.408 346.76C362.101 348.709 362.717 350.662 363.252 352.619C364.188 356.068 364.031 359.933 364.586 363.636C364.613 363.829 364.7 363.991 364.847 364.122L367.458 366.386C369.249 367.665 370.88 369.111 372.352 370.725C372.494 370.879 372.578 371.062 372.605 371.274C372.794 372.872 373.202 374.367 373.83 375.757C373.653 377.04 373.79 378.196 374.24 379.224C376.047 383.33 377.354 387.584 378.163 391.987C378.498 393.789 379.492 394.967 380.469 396.417C380.577 396.579 380.632 396.757 380.636 396.95C380.671 401.14 382.571 404.094 386.338 405.812C386.503 405.885 386.616 406.008 386.674 406.181C387.344 408.215 387.673 410.174 389.152 411.849C393.26 416.523 394.19 423.15 394.057 429.771L394.149 430.326C393.526 432.14 393.629 433.852 394.461 435.461C395.46 437.397 395.259 439.165 395.138 441.233C394.891 442.781 394.908 443.872 395.189 444.503C396.245 446.88 398.356 450.395 401.521 455.047L404.023 462.991L404.705 469.37C407.101 471.175 408.583 473.381 409.978 476.054C411.032 477.812 411.878 479.6 412.546 481.321C412.652 481.54 412.758 481.764 412.868 481.988C412.848 481.997 412.828 482.008 412.809 482.018C413.421 483.696 413.866 485.296 414.177 486.726L414.284 486.731C415.33 490.544 414.844 494.409 416.266 498.193C417.71 502.041 418.38 506.755 422.99 508.061C423.811 508.246 424.517 508.677 425.11 509.355C424.625 511.152 428.554 511.216 430.64 511.441C430.844 511.464 431.01 511.559 431.137 511.724L433.477 514.699C433.631 514.899 433.631 515.098 433.477 515.294L433.031 515.855C432.924 515.986 432.852 516.134 432.817 516.299C432.313 518.553 431.312 520.558 429.813 522.314C429.675 522.476 429.489 522.591 429.282 522.643C429.075 522.695 428.857 522.681 428.658 522.603C422.661 520.257 418.854 517.692 412.077 519.778C408.102 520.997 400.308 523.793 398.685 522.99C398.504 522.897 398.365 522.763 398.269 522.585C397.764 521.669 397.102 520.885 396.281 520.234C396.127 520.115 395.99 520.132 395.871 520.286C393.629 523.169 392.353 525.792 388.852 527.843C388.686 527.939 388.511 527.972 388.326 527.941L385.327 527.433C385.111 527.398 384.981 527.273 384.935 527.057L384.218 523.81C384.192 523.687 384.13 523.576 384.041 523.488C383.952 523.4 383.838 523.34 383.715 523.316C383.591 523.292 383.464 523.305 383.347 523.353C383.23 523.401 383.129 523.481 383.057 523.584L377.857 531.142L370.312 537.954H369.734C370.062 537.299 370.865 536.212 372.144 534.695C374.943 531.375 377.814 528.103 380.757 524.879C380.79 524.848 380.81 524.805 380.813 524.76C380.816 524.715 380.802 524.67 380.773 524.635C380.745 524.6 380.704 524.577 380.659 524.571C380.614 524.565 380.569 524.576 380.532 524.602L377.291 526.462C377.262 526.476 377.229 526.478 377.198 526.469C377.168 526.46 377.141 526.441 377.124 526.415C377.107 526.388 377.1 526.356 377.104 526.325C377.108 526.293 377.123 526.264 377.146 526.243C378.568 525.114 379.775 523.721 380.769 522.065C383.397 519.298 386.847 516.86 386.633 512.458C387.184 511.082 387.307 509.626 387.003 508.089C386.966 507.906 386.871 507.739 386.733 507.613C386.595 507.486 386.421 507.407 386.234 507.385L379.815 506.623C379.742 506.614 379.674 506.577 379.627 506.52C379.58 506.463 379.557 506.39 379.562 506.316C379.696 503.554 379.457 500.841 378.845 498.175C377.87 493.947 376.779 489.722 375.569 485.5C375.621 483.294 374.836 480.912 374.622 479.173C374.137 475.237 373.859 472.443 373.79 470.791C373.738 469.577 373.333 468.595 373.275 467.694C373.079 464.771 372.391 461.959 371.213 459.259L370.757 457.647C369.232 452.182 367.59 446.753 365.834 441.361C364.417 437.024 363.121 433.738 361.946 431.504C359.947 426.247 358.959 420.452 357.584 414.987C356.833 412.023 356.792 407.447 352.922 406.759C352.726 406.725 352.591 406.615 352.518 406.43C351.535 403.958 350.562 401.485 349.6 399.012C348.294 395.661 348.063 392.252 347.347 388.716C347.019 385.196 346.494 381.693 345.77 378.208L344.469 369.108L344.33 367.103C344.319 366.895 344.219 366.75 344.03 366.669C341.642 365.61 339.967 364.299 339.004 362.735C336.99 359.465 334.045 353.797 330.17 345.732C328.541 342.339 327.298 338.803 326.443 335.125C326.051 333.409 326.819 331.849 325.375 330.162C323.765 328.282 322.598 326.308 321.874 324.24C322.563 319.402 322.888 314.58 322.85 309.774C322.827 307.33 324.514 304.84 325.548 302.667L327.94 298.057C328.037 297.869 328.037 297.681 327.94 297.497L323.717 289.235L323.526 288.657C322.352 286.396 321.687 284.905 321.533 284.185C319.234 273.624 323 263.664 322.948 252.259C323.694 245.973 326.028 240.583 324.809 233.806C324.624 231.603 323.682 229.81 321.983 228.427C321.032 227.291 320.302 226.032 319.794 224.649C319.001 220.813 318.7 216.916 318.893 212.96C318.658 210.546 319.149 208.373 320.366 206.444C321.229 205.115 321.829 203.696 322.168 202.186C322.206 202.005 322.183 201.833 322.099 201.671L319.112 195.882C319.046 195.753 318.952 195.64 318.839 195.549C318.725 195.459 318.594 195.393 318.453 195.357C318.312 195.32 318.166 195.313 318.022 195.337C317.879 195.361 317.742 195.415 317.621 195.496L316.616 196.166C316.466 196.266 316.304 196.297 316.131 196.258C313.173 195.646 311.578 197.131 309.157 198.483C308.984 198.579 308.801 198.596 308.608 198.535C307.32 198.113 306.309 197.431 304.963 197.13C302.579 196.599 300.667 195.316 299.227 193.283C299.123 193.136 298.978 193.056 298.793 193.041C297.992 192.967 297.256 193.159 296.586 193.618C296.42 193.733 296.237 193.783 296.037 193.768C295.225 193.703 294.446 193.839 293.703 194.178C293.464 194.286 293.296 194.221 293.2 193.982C292.95 193.354 293.023 192.767 293.42 192.22C293.463 192.161 293.491 192.092 293.502 192.019C293.513 191.946 293.506 191.872 293.481 191.802C293.457 191.733 293.416 191.67 293.362 191.619C293.308 191.568 293.242 191.53 293.171 191.509C292.562 191.336 291.898 191.367 291.178 191.602C287.084 192.923 283.945 195.423 281.761 199.101C281.634 199.317 281.474 199.342 281.281 199.176L276.978 195.496C276.812 195.353 276.625 195.309 276.417 195.363L275.256 195.675C275.036 195.733 274.845 195.681 274.684 195.519L272.078 192.919C271.924 192.765 271.861 192.58 271.888 192.365L272.205 189.481C272.211 189.422 272.2 189.362 272.174 189.308C272.148 189.254 272.108 189.209 272.059 189.176C272.009 189.144 271.951 189.127 271.893 189.125C271.834 189.124 271.776 189.139 271.726 189.169C264.504 193.433 258.79 198.252 249.766 194.774C247.224 193.21 245.336 192.301 244.104 192.046C240.146 191.232 234.715 191.821 230.318 190.903C227.73 190.36 225.175 189.678 222.652 188.858C221.489 188.477 220.828 187.644 220.67 186.362C220.664 186.322 220.648 186.284 220.623 186.252C220.598 186.221 220.566 186.195 220.528 186.18C220.491 186.165 220.45 186.16 220.41 186.166C220.37 186.171 220.333 186.187 220.301 186.211C217.817 188.228 216.482 188.407 213.345 187.719C209.655 185.932 205.945 184.183 202.217 182.473C200.859 181.844 198.635 182.912 198.363 181.284C197.824 180.421 197.004 180.165 195.902 180.515C195.679 180.588 195.517 180.517 195.417 180.301C194.88 179.128 194.764 178.042 193.886 177.072C192.861 175.939 191.789 174.842 190.668 173.779C190.522 173.64 190.349 173.571 190.148 173.571L187.924 173.565C186.196 173.473 184.833 173.628 183.319 172.588C181.921 171.622 180.519 170.666 179.113 169.722C176.236 167.787 172.711 167.053 169.436 166.013C169.247 165.955 169.118 165.832 169.049 165.644L168.599 164.367C168.522 164.143 168.365 164.051 168.13 164.089C164.76 164.652 161.648 164.022 158.794 162.201C158.571 162.058 158.411 161.834 158.314 161.53C158.384 160.825 158.21 160.306 157.609 159.867C154.598 157.633 151.462 155.587 148.204 153.731L145.292 152.211C145.126 152.127 144.951 152.086 144.767 152.089L140.353 152.188C140.137 152.196 140.021 152.092 140.006 151.876C139.775 148.468 136.482 150.478 134.518 150.27C134.252 150.243 134.113 150.094 134.102 149.825L134.021 147.543C134.013 147.316 133.91 147.148 133.714 147.041C133.267 146.79 132.794 146.751 132.293 146.924C132.1 146.99 131.903 147.006 131.703 146.971L127.047 146.173C128.969 145.746 130.864 145.338 132.731 144.949C135.302 144.411 138.786 145.492 141.427 145.798C142.998 145.977 144.373 146.867 146.188 146.018C148.088 145.134 150.815 146.659 152.698 147.405C153.472 148.067 154.124 148.928 154.651 149.987C154.715 150.111 154.813 150.215 154.936 150.284C155.058 150.353 155.198 150.383 155.339 150.374L156.686 150.282C157.001 150.259 157.159 150.405 157.159 150.72V151.616C157.159 151.858 157.269 152.028 157.488 152.125L166.114 155.944L167.42 156.539C167.601 156.619 167.738 156.746 167.83 156.919C169.247 159.527 171.369 160.979 174.196 161.276C176.571 161.53 178.882 160.08 180.968 158.954C181.965 160.117 183.851 161.852 186.624 164.159C187.918 165.233 190.599 167.937 194.666 172.27C194.808 172.424 194.986 172.491 195.197 172.472C198.417 172.191 201.58 172.346 204.685 172.935C206.198 173.763 207.635 174.258 208.994 174.419C211.563 175.756 214.286 176.176 217.163 175.679L220.393 175.905C220.577 175.916 220.73 175.991 220.85 176.129L222.542 178.112C222.708 178.308 222.907 178.348 223.138 178.233C226.656 176.448 230.706 176.898 235.98 177.06C239.175 177.158 242.122 178.73 244.872 180.163C247.056 181.295 248.558 183.45 250.759 184.842C250.921 184.946 251.052 185.083 251.152 185.252C251.869 186.469 252.939 187.132 254.364 187.24C256.047 187.278 257.65 186.908 259.171 186.13C259.356 186.038 259.437 185.89 259.414 185.686C259.044 182.012 263.475 178.083 265.653 175.419C269.004 173.143 272.721 171.874 276.804 171.612C279.504 171.023 282.182 171.176 284.84 172.074L288.295 174.691C288.472 174.822 288.627 174.799 288.758 174.622L288.948 174.374C289.064 174.216 289.205 174.088 289.37 173.992L296.788 169.7C296.946 169.607 297.117 169.559 297.302 169.555L301.018 169.474L306.76 166.227C306.922 166.135 307.095 166.09 307.28 166.094C308.355 166.11 309.968 165.902 312.121 165.47C313.542 165.185 315.522 165.284 318.061 165.765L320.256 168.25C320.371 168.38 320.516 168.434 320.689 168.411C322.885 168.122 324.273 169.033 324.854 171.144C324.912 171.355 325.039 171.542 325.215 171.673C325.39 171.805 325.605 171.874 325.825 171.872L332.262 171.78C332.42 171.78 332.556 171.723 332.672 171.612C336.179 168.192 339.269 165.436 342.06 160.832C345.434 156.065 348.08 152.72 352.615 149.872C357.168 149.201 355.989 141.136 361.917 140.546C362.117 140.527 362.22 140.418 362.224 140.217C362.231 139.543 362.484 138.992 362.98 138.565L363.702 138.42Z" fill="#049FDA"/>
<path d="M93.3746 117.605C94.1684 118.149 94.6064 118.874 94.6887 119.783C94.7751 120.694 94.4266 121.722 93.6433 122.866C93.1248 123.624 92.5749 124.185 91.9934 124.55C91.4188 124.914 90.839 125.092 90.254 125.082C89.6759 125.071 89.1208 124.883 88.589 124.519C88.2505 124.287 87.9867 124.042 87.7976 123.782C87.6084 123.522 87.4735 123.261 87.3927 122.999C87.3147 122.732 87.2732 122.473 87.2682 122.221L87.1836 122.163C87.0934 122.338 86.9888 122.53 86.8698 122.738C86.7575 122.946 86.6462 123.13 86.5359 123.291L84.6701 126.017L83.2437 125.04L89.8548 115.382L91.0152 116.177L90.5817 117.238L90.6482 117.283C90.9027 117.18 91.1738 117.108 91.4614 117.068C91.753 117.031 92.0575 117.053 92.3748 117.134C92.6988 117.214 93.0321 117.371 93.3746 117.605ZM92.1995 118.505C91.8087 118.238 91.4406 118.101 91.0953 118.095C90.7568 118.089 90.427 118.203 90.1058 118.439C89.7887 118.677 89.4661 119.028 89.1382 119.489L89.0016 119.689C88.6624 120.184 88.4245 120.64 88.2881 121.055C88.1584 121.47 88.1504 121.849 88.264 122.193C88.3844 122.536 88.6501 122.848 89.0611 123.129C89.4076 123.366 89.7585 123.467 90.1137 123.432C90.473 123.4 90.8291 123.247 91.1818 122.974C91.5346 122.701 91.8737 122.326 92.1992 121.851C92.6929 121.13 92.9473 120.481 92.9625 119.906C92.9817 119.333 92.7274 118.866 92.1995 118.505ZM93.5421 126.631C93.7683 126.301 94.0115 126.127 94.2717 126.11C94.5388 126.092 94.7952 126.166 95.041 126.335C95.2867 126.503 95.4494 126.715 95.5289 126.97C95.6151 127.225 95.5452 127.517 95.319 127.848C95.0984 128.17 94.8498 128.343 94.5732 128.367C94.3034 128.389 94.0456 128.316 93.7998 128.148C93.5541 127.98 93.3928 127.766 93.3161 127.506C93.2461 127.245 93.3215 126.954 93.5421 126.631ZM100.487 132.485L106.535 123.649L111.926 127.34L111.087 128.566L107.146 125.869L105.541 128.214L106.598 128.938C107.437 129.512 108.034 130.083 108.39 130.652C108.748 131.217 108.907 131.773 108.865 132.318C108.823 132.863 108.628 133.39 108.281 133.897C107.704 134.739 106.987 135.213 106.128 135.317C105.276 135.421 104.252 135.063 103.055 134.244L100.487 132.485ZM102.765 132.27L103.792 132.973C104.473 133.439 105.057 133.67 105.545 133.667C106.035 133.659 106.456 133.4 106.806 132.888C107.051 132.529 107.161 132.196 107.135 131.888C107.112 131.577 106.967 131.27 106.7 130.969C106.436 130.67 106.061 130.354 105.573 130.021L104.709 129.429L102.765 132.27ZM114.271 132.095L111.934 135.51C111.859 135.619 111.76 135.755 111.636 135.919C111.519 136.081 111.392 136.249 111.256 136.422C111.123 136.591 110.999 136.746 110.885 136.887C110.771 137.028 110.685 137.132 110.627 137.199L117.535 134.33L119.263 135.513L114.684 142.203L113.324 141.272L115.636 137.894C115.758 137.717 115.902 137.514 116.071 137.286C116.243 137.06 116.409 136.843 116.57 136.634C116.735 136.427 116.858 136.269 116.94 136.159L110.048 139.03L108.326 137.851L112.905 131.161L114.271 132.095ZM117.645 144.23L116.061 143.146L119.799 141.693C119.6 141.439 119.444 141.157 119.33 140.848C119.223 140.538 119.189 140.207 119.228 139.856C119.271 139.5 119.42 139.135 119.676 138.76C120.123 138.107 120.699 137.768 121.404 137.741C122.108 137.714 122.837 137.959 123.591 138.475L126.625 140.552L122.045 147.242L120.625 146.27L122.395 143.683L121.047 142.761L117.645 144.23ZM121.058 139.724C120.827 140.062 120.777 140.407 120.909 140.758C121.045 141.105 121.332 141.429 121.771 141.729L123.107 142.644L124.472 140.649L122.931 139.594C122.508 139.305 122.136 139.186 121.816 139.239C121.498 139.288 121.246 139.45 121.058 139.724Z" fill="white"/>
</svg>
